<?xml version="1.0" encoding="UTF-8" standalone="no"?>
<!-- Created with Inkscape (http://www.inkscape.org/) -->

<svg
   width="529.16669mm"
   height="529.16669mm"
   viewBox="0 0 529.16669 529.16669"
   version="1.1"
   id="svg1"
   xml:space="preserve"
   xmlns="http://www.w3.org/2000/svg"
   xmlns:svg="http://www.w3.org/2000/svg"><defs
     id="defs1" /><g
     id="layer1"
     transform="translate(159.54376,116.15209)"><path
       id="path1"
       style="display:inline;fill:#837957;fill-opacity:1"
       d="m 104.27735,-15.607323 c -0.0922,0 -0.63126,1.458515 -1.19786,3.241146 -0.5666,1.78263 -1.71197,5.3247393 -2.54558,7.8713543 -0.833657,2.546614 -2.610848,8.0234893 -3.949118,12.1708333 -1.33828,4.1473434 -2.654111,8.1954684 -2.924369,8.9958334 -0.270259,0.800364 -1.756707,5.384271 -3.303158,10.186458 -1.54645,4.802188 -3.568534,11.052968 -4.493265,13.890625 -0.924731,2.837656 -2.237505,6.885782 -2.917652,8.995834 -0.680147,2.110053 -1.687339,5.205677 -2.238106,6.879166 -0.550768,1.67349 -1.923915,5.900209 -3.050977,9.392709 -1.127061,3.4925 -2.206439,6.796484 -2.39882,7.342187 l -0.349849,0.992188 h 12.670544 12.67054 l 0.1726,-0.595313 c 0.46765,-1.613071 3.65161,-11.473492 3.77083,-11.67784 0.14862,-0.254753 0.44947,0.620531 3.89692,11.347111 1.26278,3.929062 2.74875,8.512969 3.30213,10.186458 0.55338,1.67349 1.86557,5.721615 2.9161,8.995834 1.05054,3.274219 2.36246,7.322369 2.91558,8.995829 0.55312,1.67349 2.09689,6.43599 3.43028,10.58334 1.33338,4.14734 2.53143,7.83828 2.66237,8.20208 0.13095,0.3638 0.357,0.98888 0.50282,1.38906 l 0.26561,0.72761 h 10.72338 c -0.0846,-0.17543 -0.16817,-0.35122 -0.24753,-0.52917 -0.37131,-0.86331 -0.57362,-1.77898 -0.69867,-2.70629 -0.0496,-0.4117 -0.0358,-0.82138 -0.016,-1.23042 -0.20689,0.0427 -0.41421,0.0842 -0.61908,0.13488 -0.0917,0.0227 -0.18142,0.0815 -0.27492,0.0682 -0.006,-8e-4 0.008,-0.006 0.0134,-0.0103 0.36955,-0.29251 0.67634,-0.57055 0.93224,-0.83664 0.05,-0.40037 0.10597,-0.80057 0.20309,-1.19476 0.13587,-0.52515 0.34285,-1.01791 0.59118,-1.48931 -1.70747,-3.1587 -13.54684,-3.55759 -5.75521,-6.55154 0.41947,-0.16119 0.86485,-0.23376 1.29811,-0.34985 0.40674,-2.4711 3.06618,-4.75423 7.99228,-4.75423 h 1.16531 0.95808 0.78341 0.73277 c 0.34972,-0.009 0.6982,0.0141 1.04593,0.0465 -0.39659,-1.21603 -0.80382,-2.46804 -1.09295,-3.351219 -0.54788,-1.673489 -2.08759,-6.43599 -3.4215,-10.583334 -1.33392,-4.147344 -2.64881,-8.195468 -2.9223,-8.995833 -0.2735,-0.800365 -1.26658,-3.836459 -2.20659,-6.746875 -4.08853,-12.658731 -6.65758,-20.582245 -7.5923,-23.415625 -0.55208,-1.67349 -2.03256,-6.257395 -3.28972,-10.186458 -1.25716,-3.929063 -2.51036,-7.798594 -2.78536,-8.598959 -0.27501,-0.800364 -1.59262,-4.848489 -2.92798,-8.995833 -1.33536,-4.147345 -2.87524,-8.909843 -3.42202,-10.583333 -0.54678,-1.6734926 -2.09165,-6.4359898 -3.43286,-10.5833337 -1.34121,-4.1473439 -2.8279,-8.7312504 -3.30368,-10.1864584 -0.47578,-1.4552089 -1.13609,-3.5090369 -1.46761,-4.5640629 -0.33153,-1.055026 -0.67829,-1.918229 -0.77049,-1.918229 z m -157.526306,114.3 1.162203,0.876949 c 1.386714,1.046174 12.289718,8.959514 16.640845,12.077814 0.800365,0.57359 5.38427,3.90861 10.186458,7.41144 4.802188,3.50283 9.846633,7.16995 11.209652,8.14885 3.558634,2.55577 3.764768,2.7052 17.7782426,12.89224 7.0063364,5.09323 13.2131774,9.59198 13.7929564,9.99732 0.502432,0.35127 1.763777,1.27432 2.889746,2.1053 -0.376516,-2.94392 -0.495133,-5.90908 0.302824,-8.80566 0.27515,-0.76237 0.49175,-1.54873 0.82579,-2.2872 1.332259,-2.94531 3.594836,-5.25978 6.348966,-6.8833 -0.368231,-0.3529 -0.751639,-0.69232 -1.070219,-1.08934 -1.51812,-1.89193 -2.424674,-4.18816 -2.808614,-6.56343 -0.08699,-0.54446 -0.159963,-1.09112 -0.220142,-1.63917 -1.153665,-0.87694 -2.87941,-2.14521 -2.87941,-2.21331 0,-0.01 2.413383,-0.008 2.598291,-0.0176 -0.04681,-0.33685 -0.08072,-0.66523 -0.06098,-0.93224 0.001,-0.0113 0.0053,0.0221 0.0083,0.0331 0.02978,-0.69616 -0.47156,-1.41567 -0.31781,-2.11408 -0.1187,-1.35974 -0.252402,-2.7259 -0.07803,-4.08967 0.19102,-1.75006 0.519867,-3.48484 1.166337,-5.13044 0.93056,-2.2672 2.124797,-4.41748 3.847827,-6.18773 1.57562,-1.58487 3.271558,-3.06141 5.315438,-4.02095 1.612883,-0.726951 3.278319,-1.320917 5.029667,-1.568893 H 19.527997 Z m 106.102567,0 c 0.546097,0.06338 1.090419,0.143396 1.628842,0.262517 0.682855,0.169238 1.346395,0.365273 2.007112,0.590661 0.256218,-0.288926 0.505059,-0.587355 0.779281,-0.853178 z m 161.729659,0.06563 c -25.94933,-0.03678 -47.2267,-0.02104 -47.2829,0.03514 -0.0562,0.05618 0.12961,0.800422 0.41238,1.654163 0.28278,0.85373 1.60924,4.94564 2.94814,9.09298 1.3389,4.14735 2.82938,8.73125 3.31194,10.18646 l 0.87747,2.64584 6.37377,0.0708 c 3.50558,0.039 6.37377,0.16505 6.37377,0.28009 0,0.18386 -3.30039,2.62308 -11.11198,8.30595 -0.0155,2.64455 -0.60446,5.66283 -1.93735,9.00204 -0.24456,0.61267 -0.39627,1.2357 -0.56637,1.86655 -0.14396,0.52647 -0.18739,0.99353 -0.28319,1.55598 -0.0876,0.41639 -0.12973,0.8398 -0.16123,1.26348 -0.0321,0.4697 -0.0375,0.94071 -0.0455,1.41129 -0.0104,0.75903 -0.0125,1.51829 -0.0145,2.27738 -0.002,0.67802 -0.003,1.35596 -0.003,2.03398 -2.7e-4,0.66551 -4.5e-4,1.33127 -5.1e-4,1.99678 -4e-5,0.55665 1e-5,1.11302 0,1.66967 v 1.72651 1.76165 c 0.0389,1.08921 -0.1062,2.16852 -0.24805,3.24476 0.009,0.64024 -0.20749,1.23428 -0.34107,1.84536 -0.0368,0.23945 -0.0805,0.47096 -0.12092,0.70539 1.86501,-1.35108 4.8457,-3.51994 5.38572,-3.90777 3.24737,-2.33226 6.58432,-4.75153 16.88011,-12.23905 6.003,-4.36563 11.65864,-8.47328 12.56822,-9.12813 0.90959,-0.65484 7.38902,-5.35781 14.39912,-10.45104 7.0101,-5.09323 13.4889,-9.7962 14.39706,-10.45104 0.90815,-0.65484 6.98772,-5.06016 13.51028,-9.78958 l 11.85923,-8.59896 z m -70.06859,18.905303 c 0.002,8.8e-4 0.005,0.0113 0.007,0.0139 -4.2e-4,-0.004 -0.006,-0.0102 -0.006,-0.0139 z m 0.007,0.0139 c 0.007,0.0676 0.0492,0.15412 0.10438,0.2465 -0.001,-0.009 -0.002,-0.0177 -0.003,-0.0263 7.7e-4,0.0619 -0.0679,-0.17796 -0.10128,-0.22015 z m 2.46135,0.96739 c -0.13217,0.037 -0.26338,0.0777 -0.3974,0.10748 -0.25159,0.0761 -0.50498,0.14519 -0.74724,0.2496 -0.14296,0.054 -0.21412,0.0818 -0.29042,0.11421 0.001,0.002 0.003,0.003 0.004,0.005 0.33484,0.33097 0.68472,0.64542 1.03146,0.96325 0.13058,-0.48366 0.26273,-0.9668 0.39998,-1.4397 z m -85.104886,34.02428 c -1.08e-4,0.35693 -3.73e-4,0.7139 -5.17e-4,1.07073 0,0.72056 -0.0016,1.44107 -0.0026,2.16163 -0.0023,1.0749 -0.005,2.14975 -0.01395,3.22461 -0.0128,1.38321 -0.02845,2.76666 -0.09405,4.14858 -0.09179,1.67681 -0.231069,3.35326 -0.544669,5.00538 -0.26621,1.37051 -0.574114,2.73223 -0.882634,4.09381 -0.29395,1.14944 -0.638636,2.30154 -0.949296,3.39204 -0.44851,1.62209 -0.967762,3.22628 -1.774052,4.71186 -1.40072,2.49101 -2.944199,4.24075 -5.356779,5.77432 -0.48882,0.25606 -0.97462,0.51693 -1.46606,0.76791 -1.24839,0.63757 -2.503042,0.88045 -3.874182,1.21595 -0.97744,0.16334 -1.959452,0.3171 -2.952792,0.3359 -0.62343,0.0342 -0.781983,0.071 -1.693953,0.15864 -0.74194,-0.0194 -1.484524,-0.0197 -2.225704,-0.0584 -0.706518,-0.0369 -1.425285,-0.19135 -2.136821,-0.38964 -3.090612,9.54581 -5.193126,16.0341 -5.623946,17.30178 -0.631638,1.85859 -4.395614,13.41608 -8.185547,25.13542 -1.623575,5.02047 -3.116304,9.60438 -3.317626,10.18646 -0.201321,0.58209 -1.756814,5.34458 -3.45612,10.58333 -1.699307,5.23875 -3.542671,10.89422 -4.096908,12.56771 -2.262498,6.83149 -6.3427651,19.49392 -6.3427651,19.68407 0,0.11202 0.3274212,-0.0425 0.7276042,-0.34313 0.856964,-0.64391 17.7710089,-12.96383 19.6515139,-14.31386 0.709456,-0.50932 5.543381,-4.02166 10.741463,-7.8052 5.198083,-3.78354 10.195618,-7.41496 11.105782,-8.0698 3.338182,-2.40175 20.932552,-15.20227 22.728845,-16.53594 1.018646,-0.75629 4.07394,-2.98385 6.789767,-4.9506 l 4.9382,-3.57601 -4.504635,-3.27784 c -2.477421,-1.80266 -4.758808,-3.45381 -5.069975,-3.66954 -0.311167,-0.21573 -2.113669,-1.53248 -4.00544,-2.92592 -1.891771,-1.39344 -4.187728,-3.05851 -5.102014,-3.70055 -1.935209,-1.35898 -1.35984,-1.53098 -5.745903,1.71566 -4.86023,3.59763 -6.482291,4.70084 -6.482291,4.40955 0,-0.25166 2.123368,-6.88169 4.755782,-14.84922 0.552908,-1.67349 2.041211,-6.2574 3.307291,-10.18646 1.26608,-3.92906 2.755207,-8.51297 3.308842,-10.18646 0.553634,-1.67349 2.337813,-7.15036 3.965133,-12.17083 1.627321,-5.02047 3.255993,-10.00635 3.619417,-11.07995 0.363427,-1.0736 0.563056,-2.03437 0.443384,-2.13475 -0.180394,-0.15132 -5.571516,-4.06886 -10.181807,-7.42125 z m 84.761236,14.93139 c -0.0436,-0.0606 -0.0465,-0.097 0.21084,0.26613 0.19215,0.28093 -0.0575,-0.0841 -0.1912,-0.24805 -0.007,-0.009 -0.0133,-0.009 -0.0196,-0.0181 z m -42.49405,16.11012 c -0.1762,0.0676 -2.57495,1.76561 -5.33094,3.77342 -8.544765,6.22506 -8.969634,6.53397 -11.977563,8.70748 -1.610998,1.16409 -2.845955,2.18544 -2.744019,2.27014 0.299864,0.24913 12.466973,9.06958 13.100493,9.4971 0.5254,0.35455 1.94317,1.38703 7.457939,5.43067 4.46209,3.27177 12.38313,9.02906 12.91343,9.38599 0.52817,0.35549 2.20059,1.57309 7.45949,5.4312 1.01864,0.74732 4.70958,3.42455 8.20208,5.9495 3.4925,2.52494 7.18345,5.20741 8.20209,5.96088 1.01865,0.75346 10.78177,7.85295 21.69583,15.7763 10.91406,7.92335 20.8975,15.17457 22.18521,16.11374 1.28771,0.93917 5.4549,3.97584 9.26042,6.74843 3.80552,2.77258 6.95227,4.96345 6.99337,4.86895 0.0411,-0.0945 -0.27404,-1.23189 -0.70074,-2.52749 -0.8038,-2.4406 -2.14208,-6.55061 -7.18457,-22.06687 -1.63155,-5.02047 -3.41904,-10.49735 -3.97185,-12.17084 -0.55282,-1.67349 -2.33468,-7.15036 -3.95997,-12.17083 -1.62529,-5.02046 -3.40741,-10.49734 -3.95996,-12.17083 -0.55256,-1.67349 -2.10524,-6.436 -3.45044,-10.58334 -1.3452,-4.14735 -3.23419,-9.93491 -4.19819,-12.86123 l -1.75286,-5.3206 -4.8948,3.54862 c -15.95829,11.56996 -15.3762,11.11397 -15.18098,11.89178 0.092,0.36673 0.9772,3.12618 1.9668,6.13244 0.98959,3.00627 1.75898,5.50622 1.70998,5.55522 -0.049,0.049 -3.40379,-2.32217 -7.45536,-5.26945 -4.05157,-2.94729 -11.71226,-8.50999 -17.02377,-12.36152 -12.65273,-9.17488 -12.88979,-9.34776 -13.71389,-9.98595 -3.65179,-2.82798 -13.39657,-9.64911 -13.64723,-9.55291 z" /><path
       style="display:inline;fill:#837957;fill-opacity:1;stroke-width:0.264583"
       d="m 193.54968,122.39264 c -0.39365,0.0984 -1.27934,-0.0984 -1.18092,0.29523 0.0984,0.39364 1.58666,-0.29523 1.18092,-0.29523 -0.89114,0 -1.76594,0.29523 -2.65705,0.29523 -0.35484,0 -0.54909,-0.47826 -0.8857,-0.59046 -0.41378,-0.13792 -0.79512,-0.10233 -1.18091,-0.29523 -0.24897,-0.12448 -0.32639,-0.50244 -0.59047,-0.59046 -0.18672,-0.0622 -0.41442,0.088 -0.59044,0 -0.088,-0.044 0.088,-0.25121 0,-0.29523 -0.17606,-0.088 -0.40373,0.0623 -0.59048,0 -0.26405,-0.088 -0.34149,-0.46597 -0.59044,-0.59045 -0.61584,-0.30792 -1.45076,-0.57777 -2.06661,-0.88569 -0.24894,-0.12448 -0.32639,-0.50243 -0.59044,-0.59045 -0.18672,-0.0623 -0.41442,0.088 -0.59047,0 -0.088,-0.044 0.0696,-0.22565 0,-0.29523 -0.64471,-0.64472 -0.47932,-0.0614 -1.18092,-0.29523 -0.3058,-0.10194 -0.5928,-0.44402 -0.88569,-0.59046 -0.35174,-0.17588 -1.20952,-0.32385 -1.47614,-0.59046 -0.0696,-0.0696 0.0696,-0.22564 0,-0.29522 -0.50003,-0.50005 0.29523,2.93985 0.29523,3.24751 0,0.3676 -0.0657,4.95322 0,5.01889 0.0696,0.0696 0.22566,-0.0696 0.29524,0 0.19683,0.19681 -0.19682,0.98409 0,1.18091 0.0696,0.0696 0.22564,-0.0696 0.29523,0 0.14761,0.14761 0.14761,0.44284 0.29522,0.59046 0.1969,0.1969 0.39357,-0.1969 0.59047,0 0.0696,0.0696 -0.0696,0.22564 0,0.29523 0.13917,0.13917 0.45127,-0.13918 0.59044,0 0.0696,0.0696 -0.0696,0.22564 0,0.29523 0.27636,0.27635 1.53115,0.055 1.77139,0.29522 0.0696,0.0696 -0.0696,0.22565 0,0.29523 0.13647,0.13648 0.70742,-0.0891 0.88566,0 0.28829,0.14414 1.48858,0.87327 1.77139,0.59046 0.0696,-0.0696 -0.0696,-0.22564 0,-0.29523 0.11904,-0.11903 0.73261,-0.19317 0.88569,-0.29523 0.58611,-0.39074 1.12596,-1.15344 1.77136,-1.47614 0.088,-0.044 0.22564,0.0696 0.29522,0 0.0696,-0.0696 -0.088,-0.25122 0,-0.29523 0.17606,-0.088 0.40376,0.0622 0.59047,0 0.26406,-0.088 0.3415,-0.46598 0.59045,-0.59046 0.088,-0.044 0.22566,0.0696 0.29525,0 0.12419,-0.12419 -0.0541,-1.07278 0,-1.18091 0.044,-0.088 0.22563,0.0696 0.29522,0 0.19682,-0.19682 -0.19682,-0.9841 0,-1.18092 0.0696,-0.0696 0.22564,0.0696 0.29522,0 0.0782,-0.0781 0,-0.76412 0,-0.88568"
       id="path9" /><text
       xml:space="preserve"
       style="font-style:normal;font-variant:normal;font-weight:normal;font-stretch:condensed;font-size:132.079px;line-height:0px;font-family:Impacted;-inkscape-font-specification:'Impacted Condensed';text-align:center;writing-mode:lr-tb;direction:ltr;text-anchor:middle;fill:#ffffff;fill-opacity:1;stroke-width:0.26276"
       x="107.01315"
       y="190.52263"
       id="text2"
       transform="scale(0.9470297,1.0559331)"><tspan
         id="tspan2"
         style="fill:#ffffff;stroke-width:0.26276"
         x="107.01315"
         y="190.52263">681</tspan></text></g></svg>
