<?xml version="1.0" encoding="UTF-8" standalone="no"?>
<!-- Created with Inkscape (http://www.inkscape.org/) -->

<svg
   width="315.01306mm"
   height="299.38535mm"
   viewBox="0 0 315.01306 299.38535"
   version="1.1"
   id="svg1"
   xml:space="preserve"
   xmlns="http://www.w3.org/2000/svg"
   xmlns:svg="http://www.w3.org/2000/svg"><defs
     id="defs1" /><g
     id="layer1"
     transform="translate(57.226107,22.489591)"><path
       style="fill:#837957;fill-opacity:1"
       d="m 2.9104103,276.85921 c 0,-0.19015 4.0801,-12.85272 6.342598,-19.68421 0.554237,-1.67349 2.3980447,-7.32896 4.0973517,-12.56771 1.699306,-5.23875 3.254366,-10.00125 3.455687,-10.58334 0.201322,-0.58208 1.69442,-5.16599 3.317995,-10.18646 3.789933,-11.71934 7.553557,-23.27682 8.185195,-25.13541 0.517176,-1.52179 2.034058,-6.18797 6.751851,-20.7698 1.553696,-4.80218 3.278213,-10.10046 3.83226,-11.77395 1.011786,-3.05608 6.493745,-19.90873 8.004113,-24.60625 0.44449,-1.38244 0.887429,-2.60499 0.984308,-2.71677 0.09688,-0.11177 2.668347,1.60427 5.714373,3.81343 7.770761,5.63584 14.23039,10.34423 14.487063,10.55953 0.119672,0.10038 -0.07976,1.06091 -0.443187,2.13451 -0.363424,1.0736 -1.992215,6.05966 -3.619536,11.08013 -1.62732,5.02047 -3.411738,10.49734 -3.965372,12.17083 -0.553635,1.67349 -2.042492,6.2574 -3.308572,10.18646 -1.26608,3.92906 -2.754343,8.51297 -3.307251,10.18646 -2.632414,7.96753 -4.755958,14.59787 -4.755958,14.84953 0,0.29129 1.622062,-0.81218 6.482292,-4.40981 4.386063,-3.24664 3.810786,-3.07485 5.745995,-1.71587 0.914286,0.64204 3.210151,2.30744 5.101922,3.70088 1.891771,1.39344 3.694174,2.71002 4.005341,2.92575 0.311167,0.21573 2.592739,1.86713 5.07016,3.66979 l 4.504401,3.27757 -4.937868,3.57592 c -2.715827,1.96675 -5.771305,4.19471 -6.789951,4.951 -1.796293,1.33367 -19.39071,14.13391 -22.728892,16.53566 -0.910164,0.65484 -5.907821,4.28625 -11.105904,8.06979 -5.198082,3.78354 -10.031522,7.29589 -10.740978,7.80521 -1.880505,1.35003 -18.7948677,13.67019 -19.6518317,14.3141 -0.400183,0.30068 -0.727605,0.45505 -0.727605,0.34303 z M 190.59233,271.87335 c -3.80552,-2.77259 -7.97271,-5.80947 -9.26042,-6.74864 -1.28771,-0.93917 -11.27098,-8.19032 -22.18504,-16.11367 -10.91406,-7.92335 -20.67719,-15.02257 -21.69584,-15.77603 -1.01864,-0.75347 -4.70958,-3.43581 -8.20208,-5.96075 -3.4925,-2.52495 -7.18344,-5.20225 -8.20208,-5.94957 -5.2589,-3.85811 -6.93108,-5.07565 -7.45925,-5.43114 -0.5303,-0.35693 -8.45158,-6.11449 -12.91367,-9.38626 -5.514754,-4.04364 -6.932324,-5.07585 -7.457724,-5.4304 -0.63352,-0.42752 -12.800661,-9.248 -13.100525,-9.49713 -0.101936,-0.0847 1.13275,-1.10643 2.743748,-2.27052 3.007929,-2.17351 3.432722,-2.48233 11.977487,-8.70739 2.75599,-2.00781 5.155057,-3.70588 5.331254,-3.77349 0.25066,-0.0962 9.9952,6.72519 13.64699,9.55317 0.8241,0.63819 1.06125,0.81087 13.71398,9.98575 5.31151,3.85153 12.97222,9.41421 17.02379,12.3615 4.05157,2.94728 7.4066,5.3186 7.45561,5.2696 0.049,-0.049 -0.72056,-2.54878 -1.71015,-5.55505 -0.9896,-3.00626 -1.87457,-5.76598 -1.96661,-6.13271 -0.19522,-0.77781 -0.7776,-0.32161 15.18069,-11.89157 l 4.8948,-3.54879 1.75273,5.3206 c 0.964,2.92632 2.85335,8.71387 4.19855,12.86122 1.3452,4.14734 2.8979,8.90984 3.45046,10.58333 0.55255,1.67349 2.33442,7.15037 3.95971,12.17083 1.62529,5.02047 3.40738,10.49735 3.9602,12.17084 0.55281,1.67349 2.34003,7.15036 3.97158,12.17083 5.04249,15.51626 6.38068,19.6265 7.18448,22.0671 0.4267,1.2956 0.74221,2.43299 0.70114,2.52752 -0.0411,0.0945 -3.18829,-2.0966 -6.99381,-4.86918 z M 138.6636,172.8373 c -0.78829,-2.43651 -2.54012,-7.81773 -3.89294,-11.95826 -1.35282,-4.14053 -2.43425,-7.55212 -2.40319,-7.5813 0.0704,-0.0662 11.45731,-8.33084 30.74815,-22.31722 18.9828,-13.76304 20.50521,-14.88704 20.50521,-15.13903 0,-0.11504 -2.86821,-0.24105 -6.37379,-0.28002 l -6.37379,-0.0708 -0.87737,-2.64584 c -0.48256,-1.45521 -1.97284,-6.03911 -3.31174,-10.18646 -1.3389,-4.147342 -2.66574,-8.23913 -2.94852,-9.09286 -0.28277,-0.85373 -0.46818,-1.598198 -0.412,-1.654374 0.0562,-0.05618 21.33341,-0.07204 47.28274,-0.03526 l 47.1806,0.06687 -11.8592,8.598954 c -6.52256,4.72943 -12.60223,9.13475 -13.51038,9.78959 -0.90816,0.65484 -7.38673,5.35781 -14.39683,10.45104 -7.0101,5.09323 -13.48985,9.7962 -14.39944,10.45104 -0.90958,0.65485 -6.56533,4.7625 -12.56833,9.12813 -10.29579,7.48751 -13.63268,9.907 -16.88005,12.23926 -2.2925,1.64646 -20.13652,14.59346 -22.86378,16.58916 -1.40044,1.02478 -3.6031,2.62745 -4.89479,3.56149 -1.2917,0.93403 -3.20287,2.33302 -4.24705,3.10885 -1.04418,0.77583 -1.93714,1.40982 -1.98437,1.40886 -0.0472,-9.7e-4 -0.73084,-1.99526 -1.51914,-4.43178 z M 16.87914,145.64416 c -1.254423,-0.93063 -2.755133,-2.0237 -3.334913,-2.42905 -0.579779,-0.40534 -6.7866007,-4.90417 -13.79293767,-9.9974 C -14.262185,123.03067 -14.468365,122.88115 -18.026999,120.32538 c -1.363019,-0.9789 -6.407278,-4.64578 -11.209468,-8.14861 -4.80219,-3.50283 -9.38609,-6.83809 -10.18646,-7.41168 -4.35112,-3.1183 -15.25394,-11.03146 -16.64065,-12.077634 l -1.16253,-0.877041 h 72.777186 72.777182 l -0.365568,0.992188 c -0.201062,0.545703 -1.36276,4.087812 -2.581551,7.871357 -1.218792,3.78354 -2.80088,8.6946 -3.515752,10.91347 l -1.299768,4.0343 -31.816147,5.9e-4 c -17.498881,3.3e-4 -31.816147,0.0979 -31.816147,0.21676 0,0.11889 2.262187,1.85774 5.027083,3.86413 3.324873,2.41273 5.027084,3.8098 5.027084,4.12591 0,0.26288 -0.231589,1.11363 -0.514641,1.89057 -0.421024,1.15564 -5.717047,17.46015 -6.666937,20.52505 -0.145949,0.47092 -0.351007,0.90915 -0.455685,0.97384 -0.104678,0.0647 -1.216669,-0.64379 -2.471092,-1.57442 z m 102.96347,-30.74885 c -0.14582,-0.40018 -0.37226,-1.02526 -0.50321,-1.38906 -0.13094,-0.3638 -1.32903,-4.05474 -2.66241,-8.20208 -1.33339,-4.14735 -2.87689,-8.909849 -3.43001,-10.583338 -0.55312,-1.67349 -1.8652,-5.721615 -2.91574,-8.995834 -1.05053,-3.274219 -2.36283,-7.322344 -2.91621,-8.995834 -0.55338,-1.673489 -2.03933,-6.257396 -3.30211,-10.186458 -3.44745,-10.72658 -3.74807,-11.601988 -3.89669,-11.347235 -0.11922,0.204348 -3.303314,10.064893 -3.770964,11.677964 l -0.17259,0.595312 H 83.602237 70.931803 l 0.349783,-0.992187 c 0.192381,-0.545703 1.271925,-3.849688 2.398986,-7.342188 1.127062,-3.4925 2.499831,-7.719218 3.050599,-9.392708 0.550767,-1.673489 1.557878,-4.769114 2.238025,-6.879167 0.680147,-2.110052 1.993229,-6.158177 2.91796,-8.995833 0.924731,-2.837658 2.946608,-9.088439 4.493058,-13.890627 1.546451,-4.802187 3.03285,-9.386093 3.303109,-10.1864567 0.270258,-0.800365 1.586333,-4.84849 2.924613,-8.99583397 1.33827,-4.14734403 3.11528,-9.62422003 3.9489,-12.17083533 0.83361,-2.546615 1.979247,-6.088724 2.545847,-7.871352 0.5666,-1.78263 1.105577,-3.24115 1.197737,-3.24115 0.0922,0 0.4388,0.86321 0.77033,1.91823 0.33152,1.05503 0.99203,3.108855 1.46781,4.564064 0.47578,1.455208 1.9624,6.0391143 3.30361,10.1864593 1.34121,4.147344 2.88593,8.909844 3.43271,10.583334 0.54678,1.67349 2.08671,6.4359897 3.42207,10.5833327 1.33536,4.147344 2.65292,8.195469 2.92793,8.995833 0.275,0.800365 1.52859,4.669896 2.78575,8.59896 1.25716,3.929063 2.73745,8.512969 3.28953,10.186459 0.93472,2.83338 3.50389,10.756894 7.59242,23.415625 0.94001,2.910416 1.93288,5.94651 2.20638,6.746875 0.27349,0.800365 1.58865,4.84849 2.92257,8.995834 1.33391,4.147344 2.87356,8.909844 3.42144,10.583333 0.54787,1.67349 1.47978,4.53099 2.0709,6.350001 0.59112,1.819011 1.75176,5.390891 2.5792,7.937501 0.82744,2.54661 1.77472,5.49341 2.10507,6.54844 l 0.60065,1.91823 h -12.54553 -12.54553 z"
       id="path1" /></g></svg>
